<svg xmlns="http://www.w3.org/2000/svg" width="640" height="440" viewBox="0 0 640 440" role="img" aria-labelledby="title desc">
  <title id="title">Student upload desk</title>
  <desc id="desc">A desk with notebooks, a laptop, and floating file cards.</desc>
  <rect width="640" height="440" rx="22" fill="#edf6f1"/>
  <path d="M72 346h496" stroke="#c9d9d0" stroke-width="12" stroke-linecap="round"/>
  <rect x="168" y="188" width="304" height="172" rx="16" fill="#ffffff" stroke="#c7d8d0" stroke-width="8"/>
  <rect x="205" y="220" width="230" height="102" rx="10" fill="#d8eef2"/>
  <path d="M247 342h146l28 45H219l28-45Z" fill="#17201c"/>
  <rect x="180" y="386" width="280" height="18" rx="9" fill="#17201c"/>
  <rect x="75" y="226" width="114" height="90" rx="12" fill="#3867b7"/>
  <path d="M94 252h76M94 274h58" stroke="#ffffff" stroke-width="10" stroke-linecap="round"/>
  <rect x="454" y="232" width="112" height="84" rx="12" fill="#c88719"/>
  <path d="M476 258h66M476 280h42" stroke="#fff5da" stroke-width="10" stroke-linecap="round"/>
  <rect x="250" y="52" width="142" height="100" rx="14" fill="#19745a"/>
  <path d="M280 86h82M280 112h54" stroke="#e9f7ef" stroke-width="11" stroke-linecap="round"/>
  <path d="M321 163v44" stroke="#19745a" stroke-width="8" stroke-linecap="round"/>
  <path d="M297 183 321 207l24-24" fill="none" stroke="#19745a" stroke-width="9" stroke-linecap="round" stroke-linejoin="round"/>
  <circle cx="138" cy="92" r="38" fill="#1f8a9c"/>
  <path d="M120 93h36M138 75v36" stroke="#ffffff" stroke-width="10" stroke-linecap="round"/>
  <circle cx="514" cy="106" r="40" fill="#f7dc8a"/>
  <path d="m497 106 12 13 24-28" fill="none" stroke="#17201c" stroke-width="10" stroke-linecap="round" stroke-linejoin="round"/>
</svg>
